<svg width="125" height="41" viewBox="0 0 125 41" fill="none" xmlns="http://www.w3.org/2000/svg">
<g clip-path="url(#clip0_1_2)">
<path d="M88.861 37.725C89.62 37.725 90.069 37.15 90.069 36.251C90.069 35.319 89.587 34.777 88.877 34.777C88.471 34.777 88.189 34.957 87.978 35.243H87.968V33.77H87.528V37.643H87.968V37.275H87.978C88.206 37.589 88.482 37.725 88.861 37.725ZM88.829 37.356C88.233 37.356 87.94 36.885 87.94 36.256C87.94 35.65 88.222 35.151 88.834 35.151C89.365 35.151 89.62 35.628 89.62 36.256C89.62 36.89 89.365 37.356 88.829 37.356ZM90.812 38.57C91.153 38.57 91.37 38.45 91.597 37.87L92.795 34.842H92.329L91.689 36.587C91.603 36.82 91.505 37.134 91.505 37.134H91.495C91.495 37.134 91.391 36.82 91.305 36.587L90.644 34.842H90.167L91.261 37.562L91.153 37.838C91.045 38.109 90.92 38.18 90.736 38.18C90.6332 38.1852 90.5308 38.1646 90.438 38.12H90.416V38.51C90.536 38.559 90.644 38.57 90.812 38.57ZM93.918 37.643H94.655V33.77H93.918V37.643ZM96.457 37.725C97.318 37.725 97.909 37.085 97.909 36.256C97.909 35.427 97.319 34.788 96.457 34.788C95.596 34.788 95.005 35.428 95.005 36.256C95.005 37.086 95.595 37.725 96.457 37.725ZM96.457 37.161C96.002 37.161 95.753 36.798 95.753 36.256C95.753 35.715 96.002 35.346 96.457 35.346C96.907 35.346 97.161 35.715 97.161 36.256C97.161 36.798 96.907 37.161 96.457 37.161ZM99.476 38.591C99.888 38.591 100.245 38.494 100.478 38.277C100.684 38.087 100.809 37.822 100.809 37.432V34.864H100.099V35.157H100.088C99.92 34.924 99.666 34.788 99.318 34.788C98.615 34.788 98.116 35.319 98.116 36.148C98.116 36.988 98.723 37.475 99.341 37.475C99.693 37.475 99.904 37.335 100.066 37.15H100.083V37.454C100.083 37.833 99.883 38.034 99.465 38.034C99.124 38.034 98.967 37.898 98.907 37.724H98.176C98.251 38.266 98.717 38.591 99.476 38.591ZM99.466 36.885C99.086 36.885 98.836 36.609 98.836 36.137C98.836 35.671 99.086 35.379 99.46 35.379C99.904 35.379 100.121 35.725 100.121 36.132C100.121 36.544 99.931 36.885 99.465 36.885H99.466ZM102.6 37.725C103.461 37.725 104.052 37.085 104.052 36.256C104.052 35.427 103.461 34.788 102.6 34.788C101.738 34.788 101.148 35.428 101.148 36.256C101.148 37.086 101.738 37.725 102.6 37.725ZM102.6 37.161C102.145 37.161 101.895 36.798 101.895 36.256C101.895 35.715 102.145 35.346 102.6 35.346C103.049 35.346 103.304 35.715 103.304 36.256C103.304 36.798 103.049 37.161 102.6 37.161ZM104.394 37.643H105.131V34.864H104.394V37.643ZM104.394 34.431H105.131V33.77H104.394V34.431ZM105.606 38.553H106.343V37.33H106.353C106.511 37.569 106.765 37.726 107.155 37.726C107.87 37.726 108.358 37.156 108.358 36.257C108.358 35.39 107.887 34.789 107.15 34.789C106.989 34.7864 106.83 34.8237 106.688 34.8975C106.545 34.9713 106.423 35.0794 106.332 35.212H106.316V34.865H105.606V38.555V38.553ZM106.998 37.113C106.559 37.113 106.326 36.782 106.326 36.278C106.326 35.78 106.511 35.384 106.971 35.384C107.426 35.384 107.61 35.752 107.61 36.278C107.61 36.804 107.372 37.113 106.998 37.113ZM109.828 37.725C110.521 37.725 110.998 37.389 110.998 36.831C110.998 36.181 110.483 36.051 110.017 35.953C109.622 35.872 109.254 35.85 109.254 35.612C109.254 35.412 109.443 35.302 109.73 35.302C110.045 35.302 110.234 35.412 110.267 35.709H110.933C110.879 35.151 110.473 34.789 109.741 34.789C109.107 34.789 108.609 35.075 108.609 35.677C108.609 36.283 109.096 36.419 109.595 36.517C109.974 36.592 110.326 36.619 110.326 36.885C110.326 37.08 110.142 37.205 109.817 37.205C109.487 37.205 109.259 37.064 109.21 36.744H108.528C108.571 37.334 109.021 37.725 109.828 37.725ZM113.796 37.643V34.864H113.059V36.468C113.059 36.836 112.847 37.096 112.501 37.096C112.187 37.096 112.04 36.917 112.04 36.592V34.864H111.309V36.717C111.309 37.324 111.656 37.719 112.273 37.719C112.663 37.719 112.88 37.573 113.07 37.319H113.086V37.643H113.796ZM114.272 37.643H115.009V36.03C115.009 35.661 115.209 35.423 115.507 35.423C115.778 35.423 115.935 35.586 115.935 35.9V37.644H116.672V36.03C116.672 35.661 116.862 35.423 117.171 35.423C117.442 35.423 117.599 35.586 117.599 35.9V37.644H118.336V35.775C118.336 35.168 118.005 34.789 117.42 34.789C117.068 34.789 116.775 34.973 116.586 35.277H116.575C116.508 35.1294 116.4 35.0045 116.263 34.9178C116.126 34.8311 115.967 34.7863 115.805 34.789C115.643 34.7849 115.482 34.8245 115.34 34.9037C115.198 34.9828 115.08 35.0986 114.998 35.239H114.982V34.865H114.272V37.645V37.643Z" fill="#E5708C"/>
<path d="M118.481 2.649C118.481 1.466 119.44 0.506 120.623 0.506H122.052C122.62 0.506 123.165 0.73178 123.567 1.13367C123.969 1.53556 124.195 2.08064 124.195 2.649C124.195 3.21736 123.969 3.76244 123.567 4.16433C123.165 4.56622 122.62 4.792 122.052 4.792H120.623C120.342 4.792 120.063 4.73656 119.803 4.62885C119.543 4.52115 119.307 4.36328 119.108 4.16427C118.909 3.96526 118.751 3.72901 118.644 3.46902C118.536 3.20902 118.481 2.93038 118.481 2.649ZM58.49 14.79C58.49 22.678 52.096 29.073 44.207 29.073C36.319 29.073 29.924 22.678 29.924 14.79C29.924 6.9 36.319 0.507 44.207 0.507C52.096 0.507 58.49 6.9 58.49 14.79ZM27.138 14.719C27.928 14.719 28.574 15.359 28.495 16.145C28.225 18.8348 27.1972 21.3928 25.5311 23.5216C23.8649 25.6505 21.6288 27.2628 19.0827 28.1711C16.5365 29.0795 13.7849 29.2466 11.1475 28.6531C8.51012 28.0596 6.09534 26.7298 4.18379 24.8182C2.27225 22.9067 0.942432 20.4919 0.348902 17.8545C-0.244629 15.2171 -0.0775021 12.4655 0.830858 9.9193C1.73922 7.37315 3.35151 5.13706 5.48035 3.47091C7.6092 1.80476 10.1672 0.776975 12.857 0.507C13.642 0.427 14.283 1.075 14.283 1.863V13.29C14.283 14.08 14.923 14.719 15.712 14.719H27.138ZM78.487 31.93C79.6234 31.93 80.7134 32.3815 81.5169 33.185C82.3205 33.9886 82.772 35.0785 82.772 36.215C82.772 37.3515 82.3205 38.4414 81.5169 39.245C80.7134 40.0485 79.6234 40.5 78.487 40.5H71.346C70.2095 40.5 69.1196 40.0485 68.316 39.245C67.5124 38.4414 67.061 37.3515 67.061 36.215C67.061 35.0785 67.5124 33.9886 68.316 33.185C69.1196 32.3815 70.2095 31.93 71.346 31.93H78.487ZM74.202 29.073C82.091 29.073 88.486 22.678 88.486 14.79C88.4894 12.3669 87.8736 9.98321 86.697 7.865L89.057 5.505C89.3288 5.23303 89.5444 4.91019 89.6915 4.55489C89.8386 4.1996 89.9142 3.81882 89.9141 3.43429C89.914 3.04977 89.8382 2.66902 89.691 2.3138C89.5437 1.95858 89.328 1.63584 89.056 1.364C88.784 1.09216 88.4612 0.876557 88.1059 0.729491C87.7506 0.582424 87.3698 0.506778 86.9853 0.506871C86.6008 0.506964 86.22 0.582794 85.8648 0.730032C85.5096 0.87727 85.1868 1.09303 84.915 1.365L82.855 3.425C80.3698 1.52691 77.3281 0.500968 74.201 0.506C66.314 0.507 59.92 6.9 59.92 14.79C59.92 22.678 66.314 29.073 74.202 29.073ZM118.481 14.79C118.481 22.678 112.086 29.073 104.197 29.073C96.309 29.073 89.914 22.678 89.914 14.79C89.914 6.9 96.309 0.507 104.197 0.507C112.086 0.507 118.481 6.901 118.481 14.79Z" fill="url(#paint0_linear_1_2)"/>
</g>
<defs>
<linearGradient id="paint0_linear_1_2" x1="-4.90444e-06" y1="16.5" x2="119" y2="16.5" gradientUnits="userSpaceOnUse">
<stop stop-color="#64C2DB"/>
<stop offset="0.307" stop-color="#7476ED"/>
<stop offset="0.604" stop-color="#C994DF"/>
<stop offset="1" stop-color="#E56F8C"/>
</linearGradient>
<clipPath id="clip0_1_2">
<rect width="125" height="40" fill="white" transform="translate(0 0.5)"/>
</clipPath>
</defs>
</svg>
